<svg xmlns="http://www.w3.org/2000/svg" xmlns:xlink="http://www.w3.org/1999/xlink" width="500" zoomAndPan="magnify" viewBox="0 0 375 374.999991" height="500" preserveAspectRatio="xMidYMid meet" version="1.0"><defs><g/><clipPath id="4dec2676e8"><path d="M 110.800781 157 L 128 157 L 128 219 L 110.800781 219 Z M 110.800781 157 " clip-rule="nonzero"/></clipPath><clipPath id="d89898932a"><path d="M 247 157 L 264.550781 157 L 264.550781 219 L 247 219 Z M 247 157 " clip-rule="nonzero"/></clipPath><clipPath id="7724f6af53"><path d="M 201 107.839844 L 219 107.839844 L 219 219 L 201 219 Z M 201 107.839844 " clip-rule="nonzero"/></clipPath><clipPath id="a7064081d5"><path d="M 156.832031 171 L 173.332031 171 L 173.332031 177.570312 L 156.832031 177.570312 Z M 156.832031 171 " clip-rule="nonzero"/></clipPath><clipPath id="df6b7a1d49"><path d="M 156.832031 154 L 173.332031 154 L 173.332031 165 L 156.832031 165 Z M 156.832031 154 " clip-rule="nonzero"/></clipPath><clipPath id="4efa3e3878"><path d="M 156.832031 164 L 173.332031 164 L 173.332031 172 L 156.832031 172 Z M 156.832031 164 " clip-rule="nonzero"/></clipPath><clipPath id="f0bed8f623"><path d="M 178.203125 148 L 196.953125 148 L 196.953125 155.65625 L 178.203125 155.65625 Z M 178.203125 148 " clip-rule="nonzero"/></clipPath><clipPath id="f25a554b94"><path d="M 178.203125 141 L 196.953125 141 L 196.953125 149 L 178.203125 149 Z M 178.203125 141 " clip-rule="nonzero"/></clipPath><clipPath id="0504a95387"><path d="M 178.203125 134 L 196.953125 134 L 196.953125 142 L 178.203125 142 Z M 178.203125 134 " clip-rule="nonzero"/></clipPath><clipPath id="bc24780371"><path d="M 178.203125 115.90625 L 196.953125 115.90625 L 196.953125 128 L 178.203125 128 Z M 178.203125 115.90625 " clip-rule="nonzero"/></clipPath><clipPath id="c9c6e5d7aa"><path d="M 178.203125 127 L 196.953125 127 L 196.953125 135 L 178.203125 135 Z M 178.203125 127 " clip-rule="nonzero"/></clipPath></defs><g clip-path="url(#4dec2676e8)"><path fill="#a6b6f8" d="M 110.800781 218.183594 L 127.882812 218.183594 L 127.882812 166.410156 C 127.882812 161.734375 124.039062 157.90625 119.339844 157.90625 C 114.644531 157.90625 110.800781 161.734375 110.800781 166.410156 Z M 110.800781 218.183594 " fill-opacity="1" fill-rule="evenodd"/></g><g clip-path="url(#d89898932a)"><path fill="#a6b6f8" d="M 247.464844 218.183594 L 264.550781 218.183594 L 264.550781 166.410156 C 264.550781 161.734375 260.707031 157.90625 256.007812 157.90625 C 251.308594 157.90625 247.464844 161.734375 247.464844 166.410156 Z M 247.464844 218.183594 " fill-opacity="1" fill-rule="evenodd"/></g><path fill="#a6b6f8" d="M 133.578125 218.183594 L 150.660156 218.183594 L 150.660156 149.976562 C 150.660156 145.300781 146.816406 141.472656 142.117188 141.472656 C 137.421875 141.472656 133.578125 145.300781 133.578125 149.976562 Z M 133.578125 218.183594 " fill-opacity="1" fill-rule="evenodd"/><path fill="#a6b6f8" d="M 156.355469 218.183594 L 173.4375 218.183594 L 173.4375 188.332031 C 173.4375 183.65625 169.59375 179.828125 164.898438 179.828125 C 160.199219 179.828125 156.355469 183.65625 156.355469 188.332031 Z M 156.355469 218.183594 " fill-opacity="1" fill-rule="evenodd"/><path fill="#a6b6f8" d="M 179.132812 218.183594 L 196.214844 218.183594 L 196.214844 166.410156 C 196.214844 161.734375 192.371094 157.90625 187.675781 157.90625 C 182.976562 157.90625 179.132812 161.734375 179.132812 166.410156 Z M 179.132812 218.183594 " fill-opacity="1" fill-rule="evenodd"/><g clip-path="url(#7724f6af53)"><path fill="#5b5299" d="M 201.910156 218.183594 L 218.992188 218.183594 L 218.992188 116.34375 C 218.992188 111.667969 215.148438 107.839844 210.453125 107.839844 C 205.753906 107.839844 201.910156 111.667969 201.910156 116.34375 Z M 201.910156 218.183594 " fill-opacity="1" fill-rule="evenodd"/></g><path fill="#a6b6f8" d="M 224.6875 218.183594 L 241.773438 218.183594 L 241.773438 136.75 C 241.773438 132.074219 237.929688 128.246094 233.230469 128.246094 C 228.53125 128.246094 224.6875 132.074219 224.6875 136.75 Z M 224.6875 218.183594 " fill-opacity="1" fill-rule="evenodd"/><g clip-path="url(#a7064081d5)"><path fill="#5b5299" d="M 165.015625 173.792969 C 168.40625 173.792969 171.28125 172.835938 173.199219 171.261719 C 173.199219 171.667969 173.199219 172.089844 173.199219 172.535156 C 173.199219 175.40625 169.679688 177.570312 165.015625 177.570312 C 160.351562 177.570312 156.832031 175.40625 156.832031 172.535156 C 156.832031 172.113281 156.832031 171.6875 156.832031 171.261719 C 158.75 172.835938 161.625 173.792969 165.015625 173.792969 Z M 165.015625 173.792969 " fill-opacity="1" fill-rule="nonzero"/></g><g clip-path="url(#df6b7a1d49)"><path fill="#5b5299" d="M 173.199219 159.945312 C 173.199219 162.816406 169.679688 164.980469 165.015625 164.980469 C 160.351562 164.980469 156.832031 162.816406 156.832031 159.945312 C 156.832031 157.074219 160.351562 154.910156 165.015625 154.910156 C 169.679688 154.910156 173.199219 157.074219 173.199219 159.945312 Z M 173.199219 159.945312 " fill-opacity="1" fill-rule="nonzero"/></g><g clip-path="url(#4efa3e3878)"><path fill="#5b5299" d="M 165.015625 167.5 C 168.40625 167.5 171.28125 166.542969 173.199219 164.964844 C 173.199219 165.375 173.199219 165.792969 173.199219 166.238281 C 173.199219 169.109375 169.679688 171.273438 165.015625 171.273438 C 160.351562 171.273438 156.832031 169.109375 156.832031 166.238281 C 156.832031 165.820312 156.832031 165.390625 156.832031 164.964844 C 158.75 166.542969 161.625 167.5 165.015625 167.5 Z M 165.015625 167.5 " fill-opacity="1" fill-rule="nonzero"/></g><g clip-path="url(#f0bed8f623)"><path fill="#5b5299" d="M 187.8125 151.398438 C 191.636719 151.398438 194.878906 150.320312 197.039062 148.542969 C 197.039062 149 197.039062 149.476562 197.039062 149.976562 C 197.039062 153.214844 193.074219 155.65625 187.8125 155.65625 C 182.550781 155.65625 178.585938 153.214844 178.585938 149.976562 C 178.585938 149.503906 178.585938 149.019531 178.585938 148.542969 C 180.746094 150.320312 183.988281 151.398438 187.8125 151.398438 Z M 187.8125 151.398438 " fill-opacity="1" fill-rule="nonzero"/></g><g clip-path="url(#f25a554b94)"><path fill="#5b5299" d="M 187.8125 144.300781 C 191.636719 144.300781 194.878906 143.222656 197.039062 141.445312 C 197.039062 141.902344 197.039062 142.378906 197.039062 142.878906 C 197.039062 146.117188 193.074219 148.558594 187.8125 148.558594 C 182.550781 148.558594 178.585938 146.117188 178.585938 142.878906 C 178.585938 142.40625 178.585938 141.921875 178.585938 141.445312 C 180.746094 143.222656 183.988281 144.300781 187.8125 144.300781 Z M 187.8125 144.300781 " fill-opacity="1" fill-rule="nonzero"/></g><g clip-path="url(#0504a95387)"><path fill="#5b5299" d="M 187.8125 137.199219 C 191.636719 137.199219 194.878906 136.125 197.039062 134.347656 C 197.039062 134.804688 197.039062 135.277344 197.039062 135.78125 C 197.039062 139.019531 193.074219 141.460938 187.8125 141.460938 C 182.550781 141.460938 178.585938 139.019531 178.585938 135.78125 C 178.585938 135.308594 178.585938 134.824219 178.585938 134.347656 C 180.746094 136.125 183.988281 137.199219 187.8125 137.199219 Z M 187.8125 137.199219 " fill-opacity="1" fill-rule="nonzero"/></g><g clip-path="url(#bc24780371)"><path fill="#5b5299" d="M 178.585938 121.585938 C 178.585938 118.347656 182.550781 115.90625 187.8125 115.90625 C 193.074219 115.90625 197.039062 118.347656 197.039062 121.585938 C 197.039062 124.820312 193.074219 127.261719 187.8125 127.261719 C 182.550781 127.261719 178.585938 124.820312 178.585938 121.585938 Z M 178.585938 121.585938 " fill-opacity="1" fill-rule="nonzero"/></g><g clip-path="url(#c9c6e5d7aa)"><path fill="#5b5299" d="M 187.8125 130.101562 C 191.636719 130.101562 194.878906 129.023438 197.039062 127.246094 C 197.039062 127.707031 197.039062 128.179688 197.039062 128.683594 C 197.039062 131.917969 193.074219 134.363281 187.8125 134.363281 C 182.550781 134.363281 178.585938 131.917969 178.585938 128.683594 C 178.585938 128.210938 178.585938 127.726562 178.585938 127.246094 C 180.746094 129.023438 183.988281 130.101562 187.8125 130.101562 Z M 187.8125 130.101562 " fill-opacity="1" fill-rule="nonzero"/></g><g fill="#353072" fill-opacity="1"><g transform="translate(78.456357, 246.375629)"><g><path d="M 2.769531 0 L 10.476562 0 C 14.304688 0 16.691406 -2.035156 16.691406 -5.320312 C 16.691406 -7.464844 15.632812 -9.066406 13.679688 -9.851562 C 15.226562 -10.640625 16.148438 -12.105469 16.148438 -13.953125 C 16.148438 -17.019531 13.761719 -19 10.125 -19 L 2.769531 -19 Z M 5.15625 -2.226562 L 5.15625 -8.605469 L 10.394531 -8.605469 C 12.867188 -8.605469 14.25 -7.4375 14.25 -5.429688 C 14.25 -3.394531 12.867188 -2.226562 10.421875 -2.226562 Z M 5.15625 -10.777344 L 5.15625 -16.773438 L 10.070312 -16.773438 C 12.378906 -16.773438 13.707031 -15.6875 13.707031 -13.761719 C 13.707031 -11.859375 12.402344 -10.777344 10.070312 -10.777344 Z M 5.15625 -10.777344 "/></g></g></g><g fill="#353072" fill-opacity="1"><g transform="translate(96.667671, 246.375629)"><g><path d="M 9.878906 0.324219 C 14.46875 0.324219 17.234375 -2.6875 17.234375 -7.734375 L 17.234375 -19 L 14.847656 -19 L 14.847656 -7.898438 C 14.847656 -4.015625 13.136719 -2.007812 9.878906 -2.007812 C 6.648438 -2.007812 4.914062 -4.015625 4.914062 -7.898438 L 4.914062 -19 L 2.550781 -19 L 2.550781 -7.734375 C 2.550781 -2.6875 5.292969 0.324219 9.878906 0.324219 Z M 9.878906 0.324219 "/></g></g></g><g fill="#353072" fill-opacity="1"><g transform="translate(116.453131, 246.375629)"><g><path d="M 2.769531 0 L 9.335938 0 C 15.171875 0 19.082031 -3.882812 19.082031 -9.5 C 19.082031 -15.117188 15.171875 -19 9.335938 -19 L 2.769531 -19 Z M 5.15625 -2.28125 L 5.15625 -16.71875 L 9.226562 -16.71875 C 13.652344 -16.71875 16.636719 -13.816406 16.636719 -9.5 C 16.636719 -5.183594 13.679688 -2.28125 9.335938 -2.28125 Z M 5.15625 -2.28125 "/></g></g></g><g fill="#353072" fill-opacity="1"><g transform="translate(137.107095, 246.375629)"><g><path d="M 11.238281 0.351562 C 17.074219 0.351562 21.007812 -4.070312 20.898438 -10.3125 L 10.585938 -10.3125 L 10.585938 -8.035156 L 18.320312 -8.035156 C 17.832031 -4.453125 15.117188 -2.035156 11.292969 -2.035156 C 7.03125 -2.035156 4.015625 -5.101562 4.015625 -9.5 C 4.015625 -13.898438 7.003906 -16.964844 11.265625 -16.964844 C 14.195312 -16.964844 16.53125 -15.527344 17.722656 -13.082031 L 20.328125 -13.082031 C 19.109375 -16.828125 15.527344 -19.351562 11.183594 -19.351562 C 5.617188 -19.351562 1.574219 -15.199219 1.574219 -9.5 C 1.574219 -3.773438 5.644531 0.351562 11.238281 0.351562 Z M 11.238281 0.351562 "/></g></g></g><g fill="#353072" fill-opacity="1"><g transform="translate(159.498054, 246.375629)"><g><path d="M 2.769531 0 L 14.601562 0 L 14.601562 -2.226562 L 5.15625 -2.226562 L 5.15625 -8.578125 L 13.625 -8.578125 L 13.625 -10.777344 L 5.15625 -10.777344 L 5.15625 -16.773438 L 14.304688 -16.773438 L 14.304688 -19 L 2.769531 -19 Z M 2.769531 0 "/></g></g></g><g fill="#353072" fill-opacity="1"><g transform="translate(175.863813, 246.375629)"><g><path d="M 7.355469 0 L 9.746094 0 L 9.746094 -16.71875 L 16.148438 -16.71875 L 16.148438 -19 L 0.921875 -19 L 0.921875 -16.71875 L 7.355469 -16.71875 Z M 7.355469 0 "/></g></g></g><g fill="#353072" fill-opacity="1"><g transform="translate(192.962361, 246.375629)"><g/></g></g><g fill="#353072" fill-opacity="1"><g transform="translate(199.693215, 246.375629)"><g><path d="M 2.769531 0 L 10.476562 0 C 14.304688 0 16.691406 -2.035156 16.691406 -5.320312 C 16.691406 -7.464844 15.632812 -9.066406 13.679688 -9.851562 C 15.226562 -10.640625 16.148438 -12.105469 16.148438 -13.953125 C 16.148438 -17.019531 13.761719 -19 10.125 -19 L 2.769531 -19 Z M 5.15625 -2.226562 L 5.15625 -8.605469 L 10.394531 -8.605469 C 12.867188 -8.605469 14.25 -7.4375 14.25 -5.429688 C 14.25 -3.394531 12.867188 -2.226562 10.421875 -2.226562 Z M 5.15625 -10.777344 L 5.15625 -16.773438 L 10.070312 -16.773438 C 12.378906 -16.773438 13.707031 -15.6875 13.707031 -13.761719 C 13.707031 -11.859375 12.402344 -10.777344 10.070312 -10.777344 Z M 5.15625 -10.777344 "/></g></g></g><g fill="#353072" fill-opacity="1"><g transform="translate(217.904529, 246.375629)"><g><path d="M 9.878906 0.324219 C 14.46875 0.324219 17.234375 -2.6875 17.234375 -7.734375 L 17.234375 -19 L 14.847656 -19 L 14.847656 -7.898438 C 14.847656 -4.015625 13.136719 -2.007812 9.878906 -2.007812 C 6.648438 -2.007812 4.914062 -4.015625 4.914062 -7.898438 L 4.914062 -19 L 2.550781 -19 L 2.550781 -7.734375 C 2.550781 -2.6875 5.292969 0.324219 9.878906 0.324219 Z M 9.878906 0.324219 "/></g></g></g><g fill="#353072" fill-opacity="1"><g transform="translate(237.689989, 246.375629)"><g><path d="M 2.769531 0 L 9.335938 0 C 15.171875 0 19.082031 -3.882812 19.082031 -9.5 C 19.082031 -15.117188 15.171875 -19 9.335938 -19 L 2.769531 -19 Z M 5.15625 -2.28125 L 5.15625 -16.71875 L 9.226562 -16.71875 C 13.652344 -16.71875 16.636719 -13.816406 16.636719 -9.5 C 16.636719 -5.183594 13.679688 -2.28125 9.335938 -2.28125 Z M 5.15625 -2.28125 "/></g></g></g><g fill="#353072" fill-opacity="1"><g transform="translate(258.343953, 246.375629)"><g><path d="M 2.769531 0 L 9.335938 0 C 15.171875 0 19.082031 -3.882812 19.082031 -9.5 C 19.082031 -15.117188 15.171875 -19 9.335938 -19 L 2.769531 -19 Z M 5.15625 -2.28125 L 5.15625 -16.71875 L 9.226562 -16.71875 C 13.652344 -16.71875 16.636719 -13.816406 16.636719 -9.5 C 16.636719 -5.183594 13.679688 -2.28125 9.335938 -2.28125 Z M 5.15625 -2.28125 "/></g></g></g><g fill="#353072" fill-opacity="1"><g transform="translate(278.997916, 246.375629)"><g><path d="M 7.601562 0 L 9.933594 0 L 9.933594 -6.839844 L 17.074219 -19 L 14.386719 -19 L 8.792969 -9.390625 L 6.324219 -13.679688 L 3.230469 -19 L 0.460938 -19 L 7.601562 -6.839844 Z M 7.601562 0 "/></g></g></g><g fill="#5b5299" fill-opacity="1"><g transform="translate(118.418179, 263.721487)"><g><path d="M 1.152344 0 L 2.148438 0 L 2.148438 -3.335938 L 5.394531 -3.335938 L 5.394531 -4.253906 L 2.148438 -4.253906 L 2.148438 -6.988281 L 5.6875 -6.988281 L 5.6875 -7.917969 L 1.152344 -7.917969 Z M 1.152344 0 "/></g></g></g><g fill="#5b5299" fill-opacity="1"><g transform="translate(125.542759, 263.721487)"><g><path d="M 1.050781 0 L 2 0 L 2 -5.871094 L 1.050781 -5.871094 Z M 0.757812 -7.578125 C 0.757812 -7.160156 1.0625 -6.84375 1.527344 -6.84375 C 1.992188 -6.84375 2.285156 -7.160156 2.285156 -7.578125 C 2.285156 -8.007812 1.992188 -8.324219 1.527344 -8.324219 C 1.0625 -8.324219 0.757812 -8.007812 0.757812 -7.578125 Z M 0.757812 -7.578125 "/></g></g></g><g fill="#5b5299" fill-opacity="1"><g transform="translate(129.410477, 263.721487)"><g><path d="M 1.050781 0 L 2 0 L 2 -2.964844 C 2 -4.253906 2.78125 -5.113281 3.878906 -5.113281 C 4.910156 -5.113281 5.542969 -4.367188 5.542969 -3.179688 L 5.542969 0 L 6.492188 0 L 6.492188 -3.269531 C 6.492188 -4.941406 5.566406 -6.015625 4.003906 -6.015625 C 3.210938 -6.015625 2.441406 -5.710938 1.933594 -5.011719 L 1.832031 -5.871094 L 1.050781 -5.871094 Z M 1.050781 0 "/></g></g></g><g fill="#5b5299" fill-opacity="1"><g transform="translate(137.65461, 263.721487)"><g><path d="M 2.972656 0.0898438 C 3.925781 0.0898438 4.671875 -0.214844 5.203125 -0.8125 L 5.304688 0 L 6.085938 0 L 6.085938 -3.730469 C 6.085938 -5.089844 5.054688 -6.015625 3.515625 -6.015625 C 2.238281 -6.015625 1.277344 -5.328125 1.019531 -4.195312 L 1.980469 -4.195312 C 2.171875 -4.773438 2.769531 -5.132812 3.527344 -5.132812 C 4.523438 -5.132812 5.132812 -4.582031 5.132812 -3.664062 L 5.132812 -3.449219 L 2.738281 -3.449219 C 1.515625 -3.449219 0.710938 -2.757812 0.710938 -1.695312 C 0.710938 -0.589844 1.5625 0.0898438 2.972656 0.0898438 Z M 1.664062 -1.707031 C 1.664062 -2.261719 2.113281 -2.613281 2.769531 -2.613281 L 5.144531 -2.613281 C 5.113281 -1.527344 4.230469 -0.757812 3.007812 -0.757812 C 2.183594 -0.757812 1.664062 -1.132812 1.664062 -1.707031 Z M 1.664062 -1.707031 "/></g></g></g><g fill="#5b5299" fill-opacity="1"><g transform="translate(145.480324, 263.721487)"><g><path d="M 1.050781 0 L 2 0 L 2 -2.964844 C 2 -4.253906 2.78125 -5.113281 3.878906 -5.113281 C 4.910156 -5.113281 5.542969 -4.367188 5.542969 -3.179688 L 5.542969 0 L 6.492188 0 L 6.492188 -3.269531 C 6.492188 -4.941406 5.566406 -6.015625 4.003906 -6.015625 C 3.210938 -6.015625 2.441406 -5.710938 1.933594 -5.011719 L 1.832031 -5.871094 L 1.050781 -5.871094 Z M 1.050781 0 "/></g></g></g><g fill="#5b5299" fill-opacity="1"><g transform="translate(153.724458, 263.721487)"><g><path d="M 3.609375 0.148438 C 5.078125 0.148438 6.21875 -0.734375 6.617188 -2.160156 L 5.609375 -2.160156 C 5.316406 -1.3125 4.558594 -0.769531 3.609375 -0.769531 C 2.398438 -0.769531 1.539062 -1.664062 1.539062 -2.941406 C 1.539062 -4.207031 2.398438 -5.113281 3.609375 -5.113281 C 4.5 -5.113281 5.238281 -4.625 5.585938 -3.8125 L 6.546875 -3.8125 C 6.253906 -5.132812 5.066406 -6.015625 3.609375 -6.015625 C 1.84375 -6.015625 0.589844 -4.726562 0.589844 -2.941406 C 0.589844 -1.140625 1.84375 0.148438 3.609375 0.148438 Z M 3.609375 0.148438 "/></g></g></g><g fill="#5b5299" fill-opacity="1"><g transform="translate(161.708492, 263.721487)"><g><path d="M 3.597656 0.148438 C 4.917969 0.148438 6.003906 -0.566406 6.480469 -1.707031 L 5.40625 -1.707031 C 5.042969 -1.085938 4.378906 -0.746094 3.609375 -0.746094 C 2.488281 -0.746094 1.695312 -1.449219 1.550781 -2.554688 L 6.628906 -2.554688 C 6.695312 -4.601562 5.484375 -6.015625 3.609375 -6.015625 C 1.832031 -6.015625 0.589844 -4.75 0.589844 -2.941406 C 0.589844 -1.121094 1.820312 0.148438 3.597656 0.148438 Z M 1.5625 -3.394531 C 1.730469 -4.433594 2.523438 -5.125 3.609375 -5.125 C 4.683594 -5.125 5.472656 -4.46875 5.675781 -3.394531 Z M 1.5625 -3.394531 "/></g></g></g><g fill="#5b5299" fill-opacity="1"><g transform="translate(169.715138, 263.721487)"><g/></g></g><g fill="#5b5299" fill-opacity="1"><g transform="translate(173.334074, 263.721487)"><g><path d="M 1.152344 0 L 2.148438 0 L 2.148438 -6.0625 L 4.773438 -2.105469 L 5.585938 -2.105469 L 8.210938 -6.050781 L 8.210938 0 L 9.207031 0 L 9.207031 -7.917969 L 8.277344 -7.917969 L 5.191406 -3.222656 L 2.082031 -7.917969 L 1.152344 -7.917969 Z M 1.152344 0 "/></g></g></g><g fill="#5b5299" fill-opacity="1"><g transform="translate(184.507118, 263.721487)"><g><path d="M 2.972656 0.0898438 C 3.925781 0.0898438 4.671875 -0.214844 5.203125 -0.8125 L 5.304688 0 L 6.085938 0 L 6.085938 -3.730469 C 6.085938 -5.089844 5.054688 -6.015625 3.515625 -6.015625 C 2.238281 -6.015625 1.277344 -5.328125 1.019531 -4.195312 L 1.980469 -4.195312 C 2.171875 -4.773438 2.769531 -5.132812 3.527344 -5.132812 C 4.523438 -5.132812 5.132812 -4.582031 5.132812 -3.664062 L 5.132812 -3.449219 L 2.738281 -3.449219 C 1.515625 -3.449219 0.710938 -2.757812 0.710938 -1.695312 C 0.710938 -0.589844 1.5625 0.0898438 2.972656 0.0898438 Z M 1.664062 -1.707031 C 1.664062 -2.261719 2.113281 -2.613281 2.769531 -2.613281 L 5.144531 -2.613281 C 5.113281 -1.527344 4.230469 -0.757812 3.007812 -0.757812 C 2.183594 -0.757812 1.664062 -1.132812 1.664062 -1.707031 Z M 1.664062 -1.707031 "/></g></g></g><g fill="#5b5299" fill-opacity="1"><g transform="translate(192.332833, 263.721487)"><g><path d="M 3.585938 0.148438 C 4.535156 0.148438 5.351562 -0.25 5.882812 -0.90625 L 5.996094 0 L 6.773438 0 L 6.773438 -8.371094 L 5.824219 -8.371094 L 5.824219 -5.042969 C 5.292969 -5.65625 4.5 -6.015625 3.585938 -6.015625 C 1.84375 -6.015625 0.589844 -4.714844 0.589844 -2.941406 C 0.589844 -1.152344 1.84375 0.148438 3.585938 0.148438 Z M 1.539062 -2.941406 C 1.539062 -4.207031 2.433594 -5.113281 3.699219 -5.113281 C 4.976562 -5.113281 5.859375 -4.207031 5.859375 -2.941406 C 5.859375 -1.664062 4.976562 -0.769531 3.699219 -0.769531 C 2.433594 -0.769531 1.539062 -1.664062 1.539062 -2.941406 Z M 1.539062 -2.941406 "/></g></g></g><g fill="#5b5299" fill-opacity="1"><g transform="translate(200.972762, 263.721487)"><g><path d="M 3.597656 0.148438 C 4.917969 0.148438 6.003906 -0.566406 6.480469 -1.707031 L 5.40625 -1.707031 C 5.042969 -1.085938 4.378906 -0.746094 3.609375 -0.746094 C 2.488281 -0.746094 1.695312 -1.449219 1.550781 -2.554688 L 6.628906 -2.554688 C 6.695312 -4.601562 5.484375 -6.015625 3.609375 -6.015625 C 1.832031 -6.015625 0.589844 -4.75 0.589844 -2.941406 C 0.589844 -1.121094 1.820312 0.148438 3.597656 0.148438 Z M 1.5625 -3.394531 C 1.730469 -4.433594 2.523438 -5.125 3.609375 -5.125 C 4.683594 -5.125 5.472656 -4.46875 5.675781 -3.394531 Z M 1.5625 -3.394531 "/></g></g></g><g fill="#5b5299" fill-opacity="1"><g transform="translate(208.979408, 263.721487)"><g/></g></g><g fill="#5b5299" fill-opacity="1"><g transform="translate(212.598345, 263.721487)"><g><path d="M 3.789062 0.148438 C 5.519531 0.148438 6.640625 -0.703125 6.640625 -2.082031 C 6.640625 -3.246094 5.859375 -3.945312 3.835938 -4.445312 C 2.296875 -4.816406 1.785156 -5.226562 1.785156 -5.882812 C 1.785156 -6.640625 2.464844 -7.113281 3.597656 -7.113281 C 4.761719 -7.113281 5.484375 -6.527344 5.507812 -5.574219 L 6.492188 -5.574219 C 6.480469 -7.113281 5.371094 -8.0625 3.597656 -8.0625 C 1.867188 -8.0625 0.769531 -7.214844 0.769531 -5.882812 C 0.769531 -4.660156 1.640625 -3.980469 3.585938 -3.515625 C 5.011719 -3.179688 5.609375 -2.78125 5.609375 -2.046875 C 5.609375 -1.265625 4.910156 -0.804688 3.789062 -0.804688 C 2.554688 -0.804688 1.695312 -1.414062 1.675781 -2.433594 L 0.679688 -2.433594 C 0.691406 -0.882812 1.898438 0.148438 3.789062 0.148438 Z M 3.789062 0.148438 "/></g></g></g><g fill="#5b5299" fill-opacity="1"><g transform="translate(220.729383, 263.721487)"><g><path d="M 1.050781 0 L 2 0 L 2 -5.871094 L 1.050781 -5.871094 Z M 0.757812 -7.578125 C 0.757812 -7.160156 1.0625 -6.84375 1.527344 -6.84375 C 1.992188 -6.84375 2.285156 -7.160156 2.285156 -7.578125 C 2.285156 -8.007812 1.992188 -8.324219 1.527344 -8.324219 C 1.0625 -8.324219 0.757812 -8.007812 0.757812 -7.578125 Z M 0.757812 -7.578125 "/></g></g></g><g fill="#5b5299" fill-opacity="1"><g transform="translate(224.597096, 263.721487)"><g><path d="M 1.050781 0 L 2 0 L 2 -3.121094 C 2 -4.332031 2.679688 -5.113281 3.699219 -5.113281 C 4.683594 -5.113281 5.304688 -4.367188 5.304688 -3.199219 L 5.304688 0 L 6.253906 0 L 6.253906 -3.121094 C 6.253906 -4.332031 6.933594 -5.113281 7.949219 -5.113281 C 8.933594 -5.113281 9.558594 -4.367188 9.558594 -3.199219 L 9.558594 0 L 10.507812 0 L 10.507812 -3.359375 C 10.507812 -5 9.558594 -6.015625 8.074219 -6.015625 C 7.125 -6.015625 6.355469 -5.609375 5.890625 -4.863281 C 5.496094 -5.621094 4.773438 -6.015625 3.835938 -6.015625 C 3.019531 -6.015625 2.363281 -5.710938 1.921875 -5.132812 L 1.832031 -5.871094 L 1.050781 -5.871094 Z M 1.050781 0 "/></g></g></g><g fill="#5b5299" fill-opacity="1"><g transform="translate(236.855755, 263.721487)"><g><path d="M 4.253906 0.148438 C 5.984375 0.148438 7.238281 -1.152344 7.238281 -2.941406 C 7.238281 -4.714844 5.984375 -6.015625 4.253906 -6.015625 C 3.292969 -6.015625 2.476562 -5.621094 1.945312 -4.964844 L 1.832031 -5.871094 L 1.050781 -5.871094 L 1.050781 2.261719 L 2 2.261719 L 2 -0.835938 C 2.535156 -0.226562 3.324219 0.148438 4.253906 0.148438 Z M 1.96875 -2.941406 C 1.96875 -4.207031 2.863281 -5.113281 4.128906 -5.113281 C 5.40625 -5.113281 6.289062 -4.207031 6.289062 -2.941406 C 6.289062 -1.664062 5.40625 -0.769531 4.128906 -0.769531 C 2.863281 -0.769531 1.96875 -1.664062 1.96875 -2.941406 Z M 1.96875 -2.941406 "/></g></g></g><g fill="#5b5299" fill-opacity="1"><g transform="translate(245.495678, 263.721487)"><g><path d="M 1.050781 0 L 2 0 L 2 -8.371094 L 1.050781 -8.371094 Z M 1.050781 0 "/></g></g></g><g fill="#5b5299" fill-opacity="1"><g transform="translate(249.363391, 263.721487)"><g><path d="M 3.597656 0.148438 C 4.917969 0.148438 6.003906 -0.566406 6.480469 -1.707031 L 5.40625 -1.707031 C 5.042969 -1.085938 4.378906 -0.746094 3.609375 -0.746094 C 2.488281 -0.746094 1.695312 -1.449219 1.550781 -2.554688 L 6.628906 -2.554688 C 6.695312 -4.601562 5.484375 -6.015625 3.609375 -6.015625 C 1.832031 -6.015625 0.589844 -4.75 0.589844 -2.941406 C 0.589844 -1.121094 1.820312 0.148438 3.597656 0.148438 Z M 1.5625 -3.394531 C 1.730469 -4.433594 2.523438 -5.125 3.609375 -5.125 C 4.683594 -5.125 5.472656 -4.46875 5.675781 -3.394531 Z M 1.5625 -3.394531 "/></g></g></g></svg>